<svg width="765" height="104" viewBox="0 0 765 104" fill="none" xmlns="http://www.w3.org/2000/svg">
<path d="M-44 1C101.935 75.6667 128.96 75.6667 37.0749 1C183.01 75.6667 210.035 75.6667 118.15 1C264.084 75.6667 291.109 75.6667 199.225 1C345.159 75.6667 372.184 75.6667 280.299 1C426.234 75.6667 453.259 75.6667 361.374 1C507.309 75.6667 534.334 75.6667 442.449 1C588.384 75.6667 615.409 75.6667 523.524 1C669.459 75.6667 696.484 75.6667 604.599 1C750.534 75.6667 777.559 75.6667 685.674 1C831.608 75.6667 858.633 75.6667 766.749 1" stroke="black" stroke-width="2"/>
<path d="M-0.888616 71C-52.6729 28.3333 -26.7808 28.3333 76.7878 71C180.356 113.667 206.249 113.667 154.464 71C102.68 28.3333 128.572 28.3333 232.141 71C335.709 113.667 361.601 113.667 309.817 71C258.033 28.3333 283.925 28.3333 387.494 71C491.062 113.667 516.954 113.667 465.17 71C413.386 28.3333 439.278 28.3333 542.846 71C646.415 113.667 672.307 113.667 620.523 71C568.739 28.3333 594.631 28.3333 698.199 71C801.768 113.667 827.66 113.667 775.876 71" stroke="black" stroke-width="2"/>
</svg>
